<svg version="1.2" xmlns="http://www.w3.org/2000/svg" viewBox="0 0 1190 1064" width="1190" height="1064"><style>.s0{fill:#80b7b3}</style><g style="opacity: .5"><path class="s0" d="m188.6 1003.7l-2.8-2.8l1000.6-1000.6l2.8 2.8l-1000.6 1000.6m488.6-512.7c5.9-5.8 15.4-5.8 21.3 0c5.8 5.9 5.8 15.4 0 21.3c-5.9 5.8-15.4 5.8-21.3 0c-5.8-5.9-5.8-15.4 0-21.3zm-673.6 572.7l-2.8-2.8l1000.6-1000.6l2.8 2.8l-1000.6 1000.6m775.6-801.7c5.9-5.8 15.4-5.8 21.3 0c5.8 5.9 5.8 15.4 0 21.3c-5.9 5.8-15.4 5.8-21.3 0c-5.8-5.9-5.8-15.4 0-21.3z" /></g></svg>